<svg xmlns="http://www.w3.org/2000/svg" fill="white" height="20" viewBox="0 -960 960 960" width="20"><path d="M183.308-141.001q-38.527 0-64.417-25.89t-25.89-64.417v-591.459l67.319 66.999 63.36-64 64.32 64 64.32-64 63.36 64 64.32-64 64.32 64 63.36-64 64.32 64 64.32-64 63.36 64 67.319-66.999v591.459q0 38.527-25.89 64.417t-64.417 25.89H183.308Zm0-77.998h257.693v-210.002H170.999v197.693q0 5.385 3.462 8.847 3.462 3.462 8.847 3.462Zm335.691 0h257.693q5.385 0 8.847-3.462 3.462-3.462 3.462-8.847v-53.693H518.999v66.002Zm0-144h270.002v-66.002H518.999v66.002Zm-348-144h618.002v-141.848H170.999v141.848Z"/></svg>