<svg xmlns="http://www.w3.org/2000/svg" fill="white" height="20" viewBox="0 -960 960 960" width="20"><path d="M288.847-237.001h77.999v-84h84v-77.998h-84v-84h-77.999v84h-84v77.998h84v84ZM503-374.846h255.999v-61.692H503v61.692Zm0 107.691h171.999v-61.691H503v61.691ZM180.309-84.002q-37.733 0-64.02-26.287-26.288-26.287-26.288-64.02v-416.382q0-37.733 26.288-64.02 26.287-26.288 64.02-26.288h197.692V-799q0-32.347 22.826-55.173 22.825-22.826 55.173-22.826h48q32.347 0 55.173 22.826T581.999-799v118.001h197.692q37.733 0 64.02 26.288 26.288 26.287 26.288 64.02v416.382q0 37.733-26.288 64.02-26.287 26.288-64.02 26.288H180.309Zm0-77.998h599.382q5.385 0 8.847-3.462 3.462-3.462 3.462-8.847v-416.382q0-5.385-3.462-8.847-3.462-3.462-8.847-3.462H572.999v15.386q-13 18.538-29.881 28.268-16.88 9.73-39.118 9.73h-48q-22.238 0-39.118-10.38-16.881-10.38-30.881-27.618V-603H180.309q-5.385 0-8.847 3.462-3.462 3.462-3.462 8.847v416.382q0 5.385 3.462 8.847 3.462 3.462 8.847 3.462ZM456-627.614h48V-799h-48v171.386ZM480-383Z"/></svg>