<svg xmlns="http://www.w3.org/2000/svg" fill="white" height="20" viewBox="0 -960 960 960" width="20"><path d="M230.924-284.307q59-39.846 120.615-57.769Q413.154-359.999 480-359.999t128.461 17.923q61.615 17.923 120.615 57.769 37.308-46 53.116-94.423Q798-427.154 798-480q0-130.675-93.73-224.338Q610.541-798 479.77-798 349-798 255.5-704.338 162-610.675 162-480q0 52.846 15.808 101.27 15.808 48.423 53.116 94.423Zm249.168-109.694q-65.861 0-111.976-46.023-46.115-46.023-46.115-111.884 0-65.861 46.023-111.976 46.023-46.115 111.884-46.115 65.861 0 111.976 46.023 46.115 46.023 46.115 111.884 0 65.861-46.023 111.976-46.023 46.115-111.884 46.115Zm.184 310q-80.43 0-152.811-31.033-72.381-31.032-126.653-85.576-54.272-54.545-85.541-126.849-31.27-72.304-31.27-153.499 0-81.196 31.27-152.541 31.269-71.346 85.541-125.891 54.272-54.544 126.611-85.576 72.34-31.033 153.535-31.033 81.196 0 152.541 31.27 71.346 31.269 125.654 85.576 54.307 54.308 85.576 125.797 31.27 71.49 31.27 153.08 0 80.43-31.033 152.811-31.032 72.381-85.576 126.653-54.545 54.272-126.034 85.541-71.49 31.27-153.08 31.27ZM480-162q48.154 0 98.423-16.923 50.27-16.923 92.27-49.231-43-26.154-92.116-40-49.115-13.847-98.577-13.847-49.462 0-99.27 13.154-49.808 13.154-91.423 40.693 42 32.308 92.27 49.231Q431.846-162 480-162Zm0-309.999q31.846 0 55.924-24.077 24.077-24.078 24.077-55.924t-24.077-55.924Q511.846-632.001 480-632.001t-55.924 24.077Q399.999-583.846 399.999-552t24.077 55.924q24.078 24.077 55.924 24.077ZM480-552Zm0 325Z"/></svg>