<svg xmlns="http://www.w3.org/2000/svg" fill="#74ad74" height="20" viewBox="0 -960 960 960" width="20"><path d="M272.309-34.002q-37.733 0-64.02-26.287-26.288-26.287-26.288-64.02v-711.382q0-37.733 26.288-64.02 26.287-26.288 64.02-26.288h415.382q37.733 0 64.02 26.288 26.288 26.287 26.288 64.02v711.382q0 37.733-26.288 64.02Q725.424-34 687.691-34H272.309ZM260-257.23v132.922q0 4.616 3.846 8.463 3.847 3.846 8.463 3.846h415.382q4.616 0 8.463-3.846 3.846-3.847 3.846-8.463v-132.922H260Zm219.789 110q14.903 0 26.249-11.136 11.346-11.136 11.346-26.038 0-14.903-11.135-26.249Q495.113-222 480.211-222q-14.903 0-26.249 11.136-11.346 11.135-11.346 26.038 0 14.902 11.135 26.248 11.136 11.347 26.038 11.347ZM260-335.23h440v-386.771H260v386.771Zm0-464.769h440v-35.692q0-4.616-3.846-8.463-3.847-3.846-8.463-3.846H272.309q-4.616 0-8.463 3.846-3.846 3.847-3.846 8.463v35.692Zm0 542.768V-112v-145.231Zm0-542.768V-848v48.001Z"/></svg>